<?xml version="1.0" encoding="UTF-8" standalone="no"?>
<!-- Created with Inkscape (http://www.inkscape.org/) -->

<svg
   xmlns:dc="http://purl.org/dc/elements/1.1/"
   xmlns:cc="http://creativecommons.org/ns#"
   xmlns:rdf="http://www.w3.org/1999/02/22-rdf-syntax-ns#"
   xmlns:svg="http://www.w3.org/2000/svg"
   xmlns="http://www.w3.org/2000/svg"
   xmlns:xlink="http://www.w3.org/1999/xlink"
   xmlns:sodipodi="http://sodipodi.sourceforge.net/DTD/sodipodi-0.dtd"
   xmlns:inkscape="http://www.inkscape.org/namespaces/inkscape"
   width="210mm"
   height="297mm"
   viewBox="0 0 210 297"
   version="1.1"
   id="svg8"
   sodipodi:docname="full.svg"
   inkscape:version="0.92.2pre0 (973e216, 2017-07-25)"
   enable-background="new">
  <defs
     id="defs2">
    <linearGradient
       inkscape:collect="always"
       id="linearGradient1139">
      <stop
         id="stop1137"
         offset="0"
         style="stop-color:#ffffff;stop-opacity:1" />
      <stop
         id="stop1135"
         offset="1"
         style="stop-color:#000000;stop-opacity:1;" />
    </linearGradient>
    <linearGradient
       inkscape:collect="always"
       xlink:href="#linearGradient1139"
       id="linearGradient5008"
       gradientUnits="userSpaceOnUse"
       gradientTransform="matrix(1,0,0,2.2105261,0,-65.519078)"
       x1="94.27932"
       y1="50.777946"
       x2="94.27932"
       y2="53.183372" />
    <mask
       maskUnits="userSpaceOnUse"
       id="mask5000">
      <g
         id="g5006">
        <rect
           y="3.6716936"
           x="60.803818"
           height="47.173073"
           width="65.61467"
           id="rect5002"
           style="opacity:1;fill:#ffffff;fill-opacity:1;stroke:none;stroke-width:0.26458332" />
        <path
           inkscape:connector-curvature="0"
           id="path5004"
           d="m 71.895501,46.579198 h 34.010049 l 0.53454,5.61266 H 72.430041 Z"
           style="display:inline;opacity:1;fill:url(#linearGradient5008);fill-opacity:1;stroke:none;stroke-width:0.3933782px;stroke-linecap:butt;stroke-linejoin:miter;stroke-opacity:1" />
      </g>
    </mask>
  </defs>
  <sodipodi:namedview
     id="base"
     pagecolor="#ffffff"
     bordercolor="#666666"
     borderopacity="1.0"
     inkscape:pageopacity="0.0"
     inkscape:pageshadow="2"
     inkscape:zoom="0.98994949"
     inkscape:cx="9.8591913"
     inkscape:cy="936.63528"
     inkscape:document-units="mm"
     inkscape:current-layer="layer6"
     showgrid="false"
     showguides="false"
     inkscape:guide-bbox="true"
     inkscape:window-width="1920"
     inkscape:window-height="1166"
     inkscape:window-x="0"
     inkscape:window-y="0"
     inkscape:window-maximized="0"
     inkscape:object-nodes="false"
     inkscape:snap-bbox="true"
     inkscape:snap-text-baseline="true">
    <sodipodi:guide
       position="26.458333,244.92857"
       orientation="0,1"
       id="guide3770"
       inkscape:locked="false" />
    <sodipodi:guide
       position="66.523808,204.8631"
       orientation="0,1"
       id="guide3772"
       inkscape:locked="false" />
    <sodipodi:guide
       position="159.42627,234.26175"
       orientation="0,1"
       id="guide3794"
       inkscape:locked="false" />
    <sodipodi:guide
       position="93.945237,215.55288"
       orientation="0,1"
       id="guide3796"
       inkscape:locked="false" />
    <sodipodi:guide
       position="94.88068,224.10551"
       orientation="0,1"
       id="guide3802"
       inkscape:locked="false" />
    <sodipodi:guide
       position="56.527505,248.6943"
       orientation="-0.94363853,0.33097782"
       id="guide4615"
       inkscape:locked="false" />
    <sodipodi:guide
       position="104.23512,257.64783"
       orientation="-0.99877645,0.049453031"
       id="guide4617"
       inkscape:locked="false" />
    <sodipodi:guide
       position="147.53278,228.51545"
       orientation="0.36421507,0.93131487"
       id="guide4619"
       inkscape:locked="false" />
    <sodipodi:guide
       position="75.102737,220.89827"
       orientation="0,1"
       id="guide4627"
       inkscape:locked="false" />
    <sodipodi:guide
       position="94.446367,250.66542"
       orientation="0,1"
       id="guide932"
       inkscape:locked="false" />
    <sodipodi:guide
       position="94.145689,243.19857"
       orientation="0,1"
       id="guide934"
       inkscape:locked="false" />
  </sodipodi:namedview>
  <metadata
     id="metadata5">
    <rdf:RDF>
      <cc:Work
         rdf:about="">
        <dc:format>image/svg+xml</dc:format>
        <dc:type
           rdf:resource="http://purl.org/dc/dcmitype/StillImage" />
        <dc:title></dc:title>
        <cc:license
           rdf:resource="https://creativecommons.org/licenses/by/3.0/" />
      </cc:Work>
    </rdf:RDF>
  </metadata>
  <g
     inkscape:groupmode="layer"
     id="layer5"
     inkscape:label="gopher fill"
     style="display:inline">
    <path
       style="fill:#5dc9e2;fill-opacity:1;stroke:none;stroke-width:0.26458332px;stroke-linecap:butt;stroke-linejoin:miter;stroke-opacity:1"
       d="m 72.524179,52.827382 h 33.923361 l -0.56696,-2.22061 -0.42522,-6.85082 -0.85045,-6.094864 -1.22842,-4.204986 -0.47247,-6.236608 -1.7009,-7.370534 -2.031618,-5.102679 1.748138,-2.504092 -0.0945,-2.4095983 -1.417415,-1.2756695 -1.700892,0.094494 -2.031622,0.9449403 -3.590774,-1.7481399 -3.638021,-0.7559524 -5.669642,0.2834823 -5.291667,1.9843749 -4.441219,2.0788696 -2.504093,2.078869 -2.83482,-1.086682 -3.449034,1.937128 0.04725,1.889881 1.889882,2.078869 2.173364,0.708705 -0.708707,2.645834 v 8.976934 l 1.181176,7.228795 0.850448,3.590772 3.638021,1.937128 0.519716,2.929316 -2.598587,1.700892 z"
       id="path1108"
       inkscape:connector-curvature="0"
       sodipodi:nodetypes="ccccccccccccccccccccccccccccccccc"
       inkscape:export-filename="/usr/local/google/home/derat/tast-export-1024.png"
       inkscape:export-xdpi="104.78289"
       inkscape:export-ydpi="104.78289"
       mask="url(#mask5000)" />
    <path
       style="fill:#ffffff;fill-opacity:1;stroke:none;stroke-width:0.26458332px;stroke-linecap:butt;stroke-linejoin:miter;stroke-opacity:1"
       d="m 85.422617,28.7314 0.04725,2.976563 1.228423,1.559152 4.157739,-1.228423 -0.283482,-2.126118 -0.850448,-2.126115 -2.36235,-0.188986 z"
       id="path1110"
       inkscape:connector-curvature="0"
       inkscape:export-filename="/usr/local/google/home/derat/tast-export-1024.png"
       inkscape:export-xdpi="104.78289"
       inkscape:export-ydpi="104.78289" />
    <path
       style="fill:#ffffff;fill-opacity:1;stroke:none;stroke-width:0.26458332px;stroke-linecap:butt;stroke-linejoin:miter;stroke-opacity:1"
       d="m 72.146204,21.124629 0.661458,1.559152 2.55134,1.700893 3.921504,0.566964 3.165549,-1.795387 1.889881,-3.49628 -0.566965,-3.118303 -2.55134,-2.173363 -3.307291,-0.94494 -3.590772,0.803199 -2.126117,2.126116 -0.472469,2.362351 z"
       id="path1112"
       inkscape:connector-curvature="0"
       inkscape:export-filename="/usr/local/google/home/derat/tast-export-1024.png"
       inkscape:export-xdpi="104.78289"
       inkscape:export-ydpi="104.78289" />
    <path
       style="fill:#ffffff;fill-opacity:1;stroke:none;stroke-width:0.26458332px;stroke-linecap:butt;stroke-linejoin:miter;stroke-opacity:1"
       d="m 86.320311,15.265998 1.370164,-2.882068 3.023809,-1.417411 3.874256,0.992188 2.645834,2.787574 -0.330729,2.976563 -1.27567,2.551339 -3.921504,1.417411 -3.827007,-1.322917 -1.606399,-2.787575 z"
       id="path1114"
       inkscape:connector-curvature="0"
       inkscape:export-filename="/usr/local/google/home/derat/tast-export-1024.png"
       inkscape:export-xdpi="104.78289"
       inkscape:export-ydpi="104.78289" />
    <path
       style="fill:#ffffff;fill-opacity:1;stroke:none;stroke-width:0.26458332px;stroke-linecap:butt;stroke-linejoin:miter;stroke-opacity:1"
       d="m 68.886159,16.683409 -1.133927,-1.559152 1.842632,-0.141741 z"
       id="path1116"
       inkscape:connector-curvature="0"
       inkscape:export-filename="/usr/local/google/home/derat/tast-export-1024.png"
       inkscape:export-xdpi="104.78289"
       inkscape:export-ydpi="104.78289" />
    <path
       style="fill:#ffffff;fill-opacity:1;stroke:none;stroke-width:0.26458332px;stroke-linecap:butt;stroke-linejoin:miter;stroke-opacity:1"
       d="m 98.132068,12.38393 -1.322917,-1.511905 2.031622,-0.188988 z"
       id="path1118"
       inkscape:connector-curvature="0"
       inkscape:export-filename="/usr/local/google/home/derat/tast-export-1024.png"
       inkscape:export-xdpi="104.78289"
       inkscape:export-ydpi="104.78289" />
    <path
       style="fill:#f4cdca;fill-opacity:1;stroke:none;stroke-width:0.26458332px;stroke-linecap:butt;stroke-linejoin:miter;stroke-opacity:1"
       d="m 87.397134,24.652353 3.140416,0.734991 0.467723,1.670434 -1.069078,0.935443 -2.204974,-0.400902 -2.605879,1.069078 -2.204971,-0.334087 -0.33409,-1.804069 2.204974,-1.603619 z"
       id="path1120"
       inkscape:connector-curvature="0"
       inkscape:export-filename="/usr/local/google/home/derat/tast-export-1024.png"
       inkscape:export-xdpi="104.78289"
       inkscape:export-ydpi="104.78289" />
    <path
       style="fill:#f4cdca;fill-opacity:1;stroke:none;stroke-width:0.26458332px;stroke-linecap:butt;stroke-linejoin:miter;stroke-opacity:1"
       d="m 69.690527,45.232105 0.334089,-3.80859 3.407685,2.004521 0.534541,2.739514 -2.806333,2.00452 z"
       id="path1122"
       inkscape:connector-curvature="0"
       inkscape:export-filename="/usr/local/google/home/derat/tast-export-1024.png"
       inkscape:export-xdpi="104.78289"
       inkscape:export-ydpi="104.78289" />
    <path
       style="fill:#f4cdca;fill-opacity:1;stroke:none;stroke-width:0.26458332px;stroke-linecap:butt;stroke-linejoin:miter;stroke-opacity:1"
       d="m 104.10148,35.744038 -0.93544,-4.142679 5.87993,-1.937702 2.27179,1.336347 -1.1359,2.405425 -3.54132,1.804069 z"
       id="path1124"
       inkscape:connector-curvature="0"
       inkscape:export-filename="/usr/local/google/home/derat/tast-export-1024.png"
       inkscape:export-xdpi="104.78289"
       inkscape:export-ydpi="104.78289" />
    <path
       style="display:inline;fill:#d3bb83;fill-opacity:1;stroke:none;stroke-width:0.26458332px;stroke-linecap:butt;stroke-linejoin:miter;stroke-opacity:1"
       d="m 107.58147,27.691966 1.79539,2.126115 4.91369,1.889882 2.12612,-1.74814 0.80319,-1.700892 4.25224,1.275667 2.69308,-2.409597 1.13393,-1.889881 0.75595,-4.252232 -2.36235,-1.795387 -0.18899,0.944941 1.6064,1.653645 -0.47247,2.267858 -0.94494,1.795386 -1.84264,0.614212 -8.50446,-3.590774 -6.70908,-4.157738 1.08668,-3.590774 2.07887,-0.755952 12.42597,5.149925 0.42522,-0.661458 -13.37091,-5.71689 -2.26785,2.126116 -1.51191,5.811384 1.03944,1.653646 2.36235,1.464658 z"
       id="path1126"
       inkscape:connector-curvature="0"
       inkscape:export-filename="/usr/local/google/home/derat/tast-export-1024.png"
       inkscape:export-xdpi="104.78289"
       inkscape:export-ydpi="104.78289" />
    <path
       style="fill:#8ec679;fill-opacity:1;stroke:none;stroke-width:0.26458332px;stroke-linecap:butt;stroke-linejoin:miter;stroke-opacity:1"
       d="m 106.73102,18.856772 3.82701,2.504092 10.63058,5.008185 2.74033,-0.425223 1.27567,-3.779762 -1.74814,-2.173363 -14.2686,-5.905878 -2.12612,2.078869 z"
       id="path1131"
       inkscape:connector-curvature="0"
       inkscape:export-filename="/usr/local/google/home/derat/tast-export-1024.png"
       inkscape:export-xdpi="104.78289"
       inkscape:export-ydpi="104.78289" />
  </g>
  <g
     inkscape:label="gopher stroke"
     id="g1102"
     inkscape:groupmode="layer"
     style="display:inline">
    <path
       style="fill:#000000;stroke-width:0.04233333"
       d="m 63.62681,15.148978 c -0.04059,-1.724993 1.978637,-1.833765 3.179289,-2.479832 1.269166,-1.355761 3.383548,0.992922 4.06845,0.166976 1.136167,-1.013112 2.283143,-2.118161 3.776973,-2.556094 1.533964,-0.7575526 2.960222,-1.7017786 4.610039,-2.1986753 1.698639,-0.7975538 3.546004,-1.2450623 5.432514,-1.1409783 1.817929,-0.1236812 3.635714,-0.3037328 5.432611,0.073014 1.453123,0.307586 2.981903,0.6603358 4.233452,1.4642935 1.274003,1.2416529 2.525124,-0.5867197 3.993752,-0.3650735 1.535775,-0.3458407 2.75332,0.9131065 3.06289,2.2690166 -0.0612,0.950515 0.29311,0.783812 -0.1447,1.744825 -0.14603,1.628619 -2.635083,2.389521 -1.09787,4.014259 0.86854,1.439143 1.32122,3.089361 1.75698,4.68807 0.44439,1.854205 0.76682,3.767184 1.23161,5.624461 0.33069,1.497573 0.21763,3.09437 0.43904,4.570337 1.45804,-0.214026 3.38222,-0.483994 4.31524,-1.843526 -0.099,-0.734353 -1.17624,-0.725622 -0.79499,-1.749348 0.37422,-1.432941 2.11025,-3.426116 -0.1283,-4.027464 -1.45469,-0.612567 -1.91554,-1.710365 -1.7861,-3.190518 0.46008,-2.384972 0.96615,-4.999396 2.84272,-6.734336 1.11209,-1.188354 2.73341,-0.317053 3.95992,0.294567 0.858,0.59805 2.51311,0.83579 2.8419,1.140087 1.26636,0.595804 2.53335,1.168928 3.7623,1.765865 1.97496,0.821486 4.05353,1.420833 5.88038,2.568994 1.75263,0.523414 2.20778,2.578134 1.58707,4.081903 -0.38573,1.611354 -0.61217,3.544821 -2.15701,4.458149 -0.93672,1.033914 -1.94519,2.918659 -3.5667,1.918425 -1.27298,-0.322376 -3.41313,-2.043545 -3.53632,0.347538 -0.84451,1.074355 -2.07344,2.62046 -3.62598,1.680187 -1.00492,-0.574015 -1.59189,-0.555945 -1.73871,0.677357 -0.63469,1.606127 -2.32807,2.298408 -3.81105,2.920839 -0.96525,0.920941 -3.92049,-0.09655 -2.79548,1.926328 0.59929,1.605037 0.69985,3.407762 0.87715,5.131452 0.0112,1.086532 0.29726,2.355766 0.35011,3.170231 -0.0758,1.338921 0.134,3.073166 0.20186,4.567651 -0.22311,1.05689 1.03463,2.536109 0.16121,3.219635 -1.16917,-0.966718 -0.752,-3.280343 -1.10848,-4.750029 -0.71356,-1.483757 -0.016,-3.211763 -0.29206,-4.918855 -0.16849,-1.804891 -0.26902,-3.65484 -0.78742,-5.379374 -0.29923,-1.413517 -0.70403,-2.761719 -1.11091,-4.146064 -0.11766,-1.813087 -0.55567,-3.587865 -0.46549,-5.417271 -0.23472,-1.96429 -0.70778,-3.94093 -1.21795,-5.820666 -0.0682,-1.679249 -0.79113,-3.201186 -1.2185,-4.79872 -0.681848,-1.445946 -1.411796,-2.836899 -1.96641,-4.33962 C 97.607962,12.698689 96.844423,11.778998 96.081002,10.701509 95.136019,9.5061254 93.276667,9.3118382 92.359717,8.4968636 90.955433,7.6874286 89.262891,7.6437231 87.68213,7.4451659 c -1.768182,0.1475246 -3.542628,0.2023549 -5.309368,0.350529 -2.012933,0.6971092 -4.0951,1.3292208 -5.915996,2.4756761 -1.202659,0.723199 -2.658088,0.983515 -3.688164,1.924031 -1.542,0.619734 -2.084473,2.432742 -3.011086,3.684585 -0.458633,1.495783 -1.168921,2.923153 -1.372976,4.496339 -0.547324,1.514245 -0.07221,3.083185 -0.340714,4.571592 -0.211246,2.218775 0.196826,4.416823 0.149753,6.647561 0.403003,2.231095 0.395535,4.543149 1.20619,6.696859 0.06686,1.332442 0.704031,2.625 1.728424,3.228857 -0.411461,-1.420399 1.097721,-1.506339 0.867661,-0.110846 -0.48295,1.893543 2.213228,0.921437 2.205589,2.091629 -0.688021,0.735899 0.234584,1.797023 0.05119,2.643854 -0.279438,1.220257 -1.585848,1.58087 -2.399028,2.148459 0.262335,1.785654 0.945125,3.499323 1.304882,5.279355 0.381267,1.471902 0.818407,2.937506 1.26454,4.388815 0.840715,0.656585 -0.20656,2.120155 -0.601543,0.964006 -0.421913,-1.605916 -1.054451,-3.109903 -1.396545,-4.734526 -0.611243,-1.534716 -0.858623,-3.156727 -1.288774,-4.737445 -0.319744,-0.835594 -0.460059,-1.69967 -1.33647,-2.279308 -0.883284,-1.509299 -0.393464,-3.311962 -0.718252,-4.957982 -0.02039,-1.633408 -0.405583,-3.235362 -0.835436,-4.749427 -0.54833,-1.917829 -0.517015,-3.929491 -0.887918,-5.874968 0.02961,-2.755668 -0.285123,-5.508963 -0.07981,-8.260424 -0.50703,-1.308723 0.970737,-3.505688 0.09085,-4.219053 -1.663705,-0.128873 -2.739618,-1.610061 -3.5542,-2.910614 -0.20721,-0.290319 -0.220377,-0.710986 -0.188128,-1.053742 z m 0.960442,0.431393 c 0.474525,0.903581 1.463388,2.789823 2.520036,2.239372 0.535469,0.315692 1.478048,0.80017 1.118217,-0.271271 -1.397012,-0.504708 -1.953069,-2.559721 -0.344002,-3.167841 0.658457,-0.02305 2.832264,0.420095 1.914233,-0.62986 -1.16108,-1.160607 -2.812125,-0.693635 -4.080899,0.1418 -0.909606,0.0796 -1.295788,0.852991 -1.127585,1.6878 z m 4.006308,0.109424 c 0.533024,0.942466 0.826325,-1.099973 -0.0635,-0.127001 z m 1.642831,30.105752 c -0.09457,0.835896 1.350324,2.315601 0.59537,0.737128 -0.459851,-0.832206 0.01339,-0.920158 0.172958,-0.144656 -0.02147,-1.51303 1.442663,-0.760285 0.9079,0.401183 1.049583,1.197332 1.782811,-1.695426 1.13006,-2.603932 -0.294521,-1.066177 -1.716016,-1.246788 -2.529212,-1.994806 -0.208239,1.195501 -0.404301,2.384537 -0.277076,3.605083 z m 26.43747,-35.704333 c 0.694148,0.293893 2.751653,-1.0239036 2.837513,0.560846 -0.01049,1.380009 -1.511713,1.932213 -0.303436,3.148315 1.225922,-0.853856 1.870222,-3.138445 0.62901,-4.2142054 -0.164332,-0.9472439 -4.151838,-0.54833 -3.163087,0.5050444 z m 1.023879,1.322917 c 0.540498,0.934882 0.523675,-0.953202 -10e-5,1e-6 z m 6.13316,21.251333 c -0.1199,1.579428 0.65195,3.381145 2.45825,2.298345 1.51163,-0.58867 3.4006,-1.125412 4.13575,-2.700115 1.46198,-2.247053 -1.49983,0.809547 -1.77373,-0.688245 0.66162,-0.553809 2.41502,-0.938061 0.63847,-1.460882 -1.48988,0.25292 -2.71202,1.348168 -4.26475,1.458374 -0.67865,0.235387 -1.63438,0.02926 -1.19399,1.092523 z m 2.31356,-11.949095 c -0.45205,1.104078 1.58046,1.893648 1.00509,1.821971 1.86153,1.217624 3.92787,2.13141 6.01584,2.888145 2.45501,1.161688 4.75816,2.685327 7.39986,3.383523 1.03768,0.524641 1.89524,-0.04996 1.93896,-0.6199 0.76069,-0.226241 -1.94539,-0.273134 -2.58552,-0.834716 -1.50406,-0.493566 -2.82761,-1.40979 -4.29279,-2.014563 -1.32338,-0.727308 -2.68568,-1.373738 -4.02573,-2.052172 -1.08043,-0.631684 -2.35813,-1.057839 -3.39506,-1.670742 -0.45637,0.121326 -2.3844,-2.072447 -2.06065,-0.901546 z m 0.0923,-0.174113 c 0.25157,-0.02111 -0.0414,0.373641 0,0 z m 0.26635,0.312208 c 0.15069,0.104396 -0.15466,0.05121 0,0 z m 1.2557,0.814917 c 0.22755,-0.165755 -0.0623,0.241992 0,0 z m 2.65801,1.344083 c 1.09123,0.409403 0.2033,0.603293 1e-5,1e-6 z m -3.85021,-3.480354 c 0.60396,0.220108 -0.60232,-0.907228 0,0 z m 0.70908,-0.82768 c 0.91457,1.148276 2.45253,1.553401 3.63555,2.314449 1.30631,0.709163 2.59521,1.458154 3.96773,1.977834 1.36436,0.6461 2.66164,1.450855 4.10705,1.969091 1.27097,0.602546 3.29569,1.783346 4.43984,0.461373 0.69931,-0.655982 0.66913,-1.825711 0.99268,-2.306219 0.90606,-1.668387 -1.2686,-2.76322 -2.50818,-3.339067 -1.96188,-0.83781 -4.07076,-1.347872 -5.9249,-2.426923 -1.56396,-0.769323 -3.24114,-1.261681 -4.78701,-2.085895 -1.1715,-0.786508 -2.92422,-0.732918 -3.25038,0.881978 -0.60853,0.644242 -0.98444,1.704425 -0.67238,2.553379 z m 1.17475,-0.729632 c -0.0253,-1.438149 2.05013,-0.492491 1.957,-1.113897 -1.1248,0.669385 -2.30437,-1.638047 -0.85332,-1.395933 1.12982,0.02026 2.46201,0.547273 2.06164,1.990286 -0.33183,1.08856 -2.88614,0.384407 -1.62701,1.283314 0.85343,-0.804425 2.51852,0.260139 1.37268,1.20346 -1.07271,-0.119531 -2.77227,-0.09773 -2.92282,-1.469112 0.0617,-0.176399 -0.15611,-0.366906 0.0118,-0.498118 z m 3.67295,1.378826 c 0.83969,-1.173113 2.4389,0.49416 2.8464,-0.840378 -0.60431,-0.652766 -1.78193,0.368719 -1.95251,-1.091748 0.73635,-1.08211 3.54197,0.239809 2.79928,1.752447 -0.59015,1.40689 -1.01012,0.880808 -2.37358,0.619844 -0.92016,0.606022 0.74946,1.098521 1.29896,1.125987 0.80793,1.606682 -1.34541,1.070169 -2.00804,0.414965 -0.73512,-0.534271 -0.57928,-1.213603 -0.61051,-1.981117 z m 0.54172,2.346507 c 0.15341,0.131515 -0.21314,0.08029 0,0 z m 2.601,0.508 c 0.57603,-1.239811 2.47065,-1.438419 2.83633,-2.828005 1.98119,-0.207599 0.83909,1.864872 0.76548,3.02524 0.44682,1.041977 -0.41887,2.760743 -1.09,1.292851 0.83617,-0.904784 -1.06445,-2.00695 -1.14074,-1.137582 0.0942,1.190096 -1.6632,0.564504 -1.37107,-0.352504 z m 2.42608,-0.719404 c 0.70513,0.378351 0.12678,-0.797608 0,0 z m 2.15899,-0.06005 c 0.70256,-2.102114 2.59253,-0.190247 3.91259,-6.74e-4 0.39368,1.042232 -1.4481,2.216992 -1.13203,3.574127 -0.68624,1.150536 -2.86558,-0.735445 -1.07642,-1.043344 0.12053,-0.855414 -2.1692,-1.080274 -1.70414,-2.530109 z m 1.41568,0.509397 c 0.55564,1.234412 1.87032,0.08196 0.47759,-0.322604 -0.23923,-0.282176 -0.94711,-0.05696 -0.47759,0.322604 z m -13.61792,-1.612257 c 0.72991,0.22978 -0.81821,-0.490306 0,0 z m 0.44501,7.040512 c 0.22096,1.616283 1.89867,2.440564 3.43828,2.898723 1.44564,0.822321 3.54714,1.526012 4.30095,-0.514596 -0.4915,-0.458427 -0.0132,-2.340313 -0.86302,-2.2973 0.45836,0.563857 0.72489,3.004146 -0.29692,1.679148 -0.48707,-0.687248 -0.16449,-2.471483 -0.88803,-2.32377 0.30369,0.586995 0.88473,2.622173 -0.23447,1.774939 -0.31509,-1.287969 -1.84488,0.118595 -1.85708,-1.568575 -0.13691,-0.786914 -0.84273,-2.193705 -0.35845,-0.508732 -0.0264,1.14013 -0.97565,-0.03261 -0.91453,0.0064 -1.25996,0.970554 -1.74353,-1.132364 -1.22035,-1.840958 -0.4733,0.781529 -1.04781,1.893834 -1.10638,2.694737 z m 1.13949,-6.198612 c 0.40422,0.124082 -0.19223,-0.205022 -0.20955,-0.06355 z m 0.96968,-7.155819 c 0.71773,0.105228 -1.1362,-0.359754 0,0 z m 1.06233,0.4069 c 0.22361,-0.03664 -0.22212,-0.100468 0,0 z m 0.23073,0.104745 c 0.5325,0.25464 -0.42798,-0.293764 0,0 z m 1.63342,0.740982 c 0.59005,0.350348 2.94245,1.121375 1.09776,0.296317 -0.11114,-0.0049 -2.00808,-0.754308 -1.09776,-0.296317 z m -0.18453,11.209798 c 0.46952,-0.01744 -0.27135,-0.467986 0,0 z m 2.51138,-10.298802 c 0.36586,0.02049 -0.55039,-0.215938 0,0 z m 0.40578,0.227228 c 1.22119,0.610851 0.0606,-0.24076 -0.17969,-0.115488 l 0.17968,0.115489 z m 0.36075,11.689715 c 0.075,-0.169669 -0.138,-0.165285 0,0 z m 0.80965,-11.109676 c 0.63256,0.425062 2.91754,1.248746 2.69543,1.007624 -1.00911,-0.246065 -2.35098,-1.05939 -3.00845,-1.140215 l 0.3131,0.132529 z m 1.51415,8.820053 c 0.26694,-0.02617 -0.52528,-0.130475 0,0 z m 0.23459,0.143349 c 0.28672,-0.08858 -0.3794,-0.124606 0,0 z m 0.43872,0.241431 c 1.38543,0.4604 2.91965,1.392651 4.36812,0.78017 1.54063,-0.702428 1.4488,-2.859705 1.92217,-4.281843 0.28359,-1.852774 -0.54179,1.415036 -0.69571,1.948896 -0.39579,0.971585 -1.20244,2.195647 -2.32862,2.211667 -1.02782,0.202439 -3.18205,-0.868484 -3.26596,-0.65889 z m 1.315,-7.817036 c 0.28478,-0.0067 -0.21886,-0.127499 0,0 z m 0.7145,0.280898 c 1.96661,0.812398 -0.54267,-0.382341 0,0 z m 2.98044,1.527544 c 0.82327,0.792177 1.43872,1.102097 0.35146,0.09453 -0.1127,-0.0874 -0.70919,-0.444218 -0.35146,-0.09453 z m -0.0485,3.880307 c 0.0475,-0.156457 -0.0744,-0.07697 0,0 z m 0.22843,-0.53887 c 0.15644,-0.341463 -0.16883,0.163709 0,0 z m 0.99977,-1.947333 c 0.0716,-0.279477 -0.12476,-0.280015 0,0 z M 69.929889,39.923892 c 0.09006,0.224062 0.04152,0.04214 0,0 z m 1.436518,-21.96926 c 0.123356,-1.271597 0.951625,-2.457872 1.86267,-3.297855 0.756311,-0.606329 1.664036,-1.188431 2.601279,-1.415421 1.525808,-0.151712 3.154526,-0.204263 4.61061,0.374134 1.144294,0.800375 2.674428,1.121375 3.408393,2.444611 0.904759,1.262974 1.206322,3.181907 0.614667,4.676014 -0.593604,1.485403 -1.620041,2.802359 -2.958553,3.718564 -0.999709,0.630783 -2.821949,0.981245 -3.528957,0.7336 -1.660548,-0.110684 -3.273991,-0.597078 -4.594848,-1.62241 -1.288011,-0.74052 -1.846944,-2.44769 -1.998733,-3.859085 0.248334,-0.578163 -0.151744,-1.174178 -0.01653,-1.752152 z m 0.732985,0.994833 c -0.338998,2.252625 1.25876,4.14921 3.230015,4.974054 1.483393,0.518081 3.117533,0.50409 4.656672,0.376021 1.698147,-0.689596 2.914876,-2.219236 3.565135,-3.868819 0.514936,-1.246767 0.345949,-2.928772 -0.500804,-3.894784 -0.572847,-1.227078 -2.083453,-1.534378 -3.132667,-2.246683 -1.818796,-0.563395 -3.957603,-0.522646 -5.588,0.526699 -1.065408,0.766707 -2.011704,1.819252 -2.272575,3.096855 0.01567,0.34548 0.04337,0.690624 0.04222,1.036657 z m 6.710205,0.745452 c 0.547606,-1.484537 2.872024,-1.950609 3.818131,-0.639844 1.052303,1.428077 -0.729134,3.653338 -2.35439,3.01149 -1.097889,-0.135444 -1.534961,-1.422976 -1.463741,-2.371646 z m 2.283541,0.507628 c 1.375067,0.640517 0.507061,-1.186919 0,0 z m 1.216952,6.705586 c -0.214322,-1.753179 2.361961,-1.538222 1.778808,-3.235173 0.896273,-1.208221 2.897996,-1.630366 4.304496,-1.190562 0.991589,0.850013 0.07008,2.363843 1.882454,2.355763 1.681163,0.688622 1.866427,2.956472 0.07856,3.308229 0.350121,1.363773 1.350728,2.798233 0.661808,4.199098 -1.14537,0.914822 -2.939013,1.195496 -4.325167,1.29336 -1.573101,-0.141813 -1.658701,-2.293467 -1.764191,-3.583609 0.526214,-1.777294 -1.502555,-0.437867 -2.219062,-1.674896 -0.386522,-0.39215 -0.533676,-0.941208 -0.397706,-1.47221 z m 0.766771,0.756708 c 0.936693,1.263697 2.708285,0.08837 3.875373,-0.23125 1.02233,-0.551237 4.165988,0.733938 3.538181,-1.217476 -1.165538,-1.57377 -3.142137,-0.838164 -4.730677,-0.662204 -1.30141,-0.256133 -2.878422,0.586362 -2.682877,2.11093 z m 2.770585,3.201459 c -0.187879,1.348965 1.582288,3.162629 2.225665,1.173931 0.267142,-0.954814 -1.790924,-3.375212 -0.06415,-3.259231 0.861643,0.864786 0.317171,3.427926 1.604599,3.518934 1.656174,-0.724214 0.0032,-2.818291 -0.146371,-3.89289 -0.751557,-0.8262 -3.118933,-0.171525 -3.617966,0.61296 -0.04997,0.621939 -0.139764,1.222235 -0.0018,1.846296 z M 82.567095,8.0308067 c 0.163173,0.027183 -0.192716,0.043052 0,0 z m 3.27072,7.7648243 c 0.186347,-1.367484 0.676326,-2.818495 1.752845,-3.737469 1.225501,-1.023944 2.955555,-1.760871 4.561417,-1.408074 1.533659,0.425139 3.129287,0.953438 4.215726,2.213969 0.687589,0.811466 1.344191,1.67023 1.103887,2.762248 0.173239,1.616656 -0.309897,3.217133 -1.354966,4.431601 -0.933361,1.477039 -2.33629,1.599673 -3.766144,1.808644 -1.738099,0.238467 -3.607505,-0.276959 -4.830341,-1.552206 C 86.391274,19.08101 85.6527,17.51646 85.837815,15.795631 Z m 0.768384,1.654023 c 0.572074,1.465368 1.463332,2.865028 3.027034,3.364264 1.647938,0.538429 3.604748,0.342235 5.10543,-0.513775 0.997614,-1.009288 1.936129,-2.406444 1.808857,-3.904047 0.365351,-1.662771 -0.649448,-3.348038 -2.215289,-4.026578 -1.366162,-0.820849 -2.998077,-1.287396 -4.544641,-0.676683 -1.393778,0.360541 -2.594266,1.604759 -2.976629,3.013477 -0.28538,1.195379 -0.12038,1.049983 -0.305689,2.412974 l 0.100948,0.330379 z m 5.484266,-1.157715 c 0.709382,-1.661048 2.965023,-1.449331 3.71165,0.03365 1.064181,1.595938 -1.069379,3.202836 -2.584725,2.711967 -0.791268,-0.529165 -1.561995,-1.803607 -1.126925,-2.745617 z m 1.825807,0.974775 c 0.978959,0.627358 0.573216,-1.526809 -0.05013,-0.222648 z M 115.30999,14.94722 c 0.0903,0.226683 0.0417,0.03843 0,0 z"
       id="path1100"
       inkscape:connector-curvature="0"
       sodipodi:nodetypes="ccccccccccccccccccccccccccccccccccccccccccccccccccccccccccccccccccccccccccccccccccccccccccccccccccccccccccccccccccccccccccccccccccccccccccccccccccccccccccccccccccccccccccccccccccccccccccccccccccccccccccccccccccccccccccccccccccccccccccccccccccccccccccccccccccccccccccccccccccccccccccccccccccccccccccccccccccccccccccccccccc"
       inkscape:export-filename="/usr/local/google/home/derat/tast-export-1024.png"
       inkscape:export-xdpi="104.78289"
       inkscape:export-ydpi="104.78289" />
  </g>
  <g
     inkscape:groupmode="layer"
     id="layer6"
     inkscape:label="text roboto"
     style="display:inline">
    <text
       xml:space="preserve"
       style="font-style:italic;font-variant:normal;font-weight:900;font-stretch:normal;font-size:45.15555573px;line-height:1.25;font-family:Roboto;-inkscape-font-specification:'Roboto Heavy Italic';letter-spacing:0px;word-spacing:0px;fill:#402b56;fill-opacity:1;stroke:none;stroke-width:0.26458332"
       x="56.129463"
       y="86.467262"
       id="text919"
       inkscape:export-filename="/usr/local/google/home/derat/tast-export-1024.png"
       inkscape:export-xdpi="104.78289"
       inkscape:export-ydpi="104.78289"><tspan
         sodipodi:role="line"
         id="tspan917"
         x="56.129463"
         y="86.467262"
         style="font-style:italic;font-variant:normal;font-weight:900;font-stretch:normal;font-size:56.44444275px;font-family:Roboto;-inkscape-font-specification:'Roboto Heavy Italic';letter-spacing:0px;fill:#402b56;fill-opacity:1;stroke-width:0.26458332"
         dx="0 -9.0300016 -1.3100001 -0.74000007">Tast</tspan></text>
  </g>
  <g
     inkscape:groupmode="layer"
     id="layer3"
     inkscape:label="speed lines">
    <path
       style="fill:#402b56;fill-opacity:1;stroke:none;stroke-width:0.28419241px;stroke-linecap:butt;stroke-linejoin:miter;stroke-opacity:1"
       d="M 65.614668,64.33113 H 34.625102 l -0.925062,2.939965 h 31.297919 z"
       id="path4856"
       inkscape:connector-curvature="0"
       inkscape:export-filename="/usr/local/google/home/derat/tast-export-1024.png"
       inkscape:export-xdpi="104.78289"
       inkscape:export-ydpi="104.78289" />
    <path
       style="fill:#402b56;fill-opacity:1;stroke:none;stroke-width:0.22448926px;stroke-linecap:butt;stroke-linejoin:miter;stroke-opacity:1"
       d="M 64.253218,70.634189 H 44.916547 l -0.577214,2.939965 h 19.529074 z"
       id="path4856-3"
       inkscape:connector-curvature="0"
       inkscape:export-filename="/usr/local/google/home/derat/tast-export-1024.png"
       inkscape:export-xdpi="104.78289"
       inkscape:export-ydpi="104.78289" />
    <path
       style="fill:#402b56;fill-opacity:1;stroke:none;stroke-width:0.25208676px;stroke-linecap:butt;stroke-linejoin:miter;stroke-opacity:1"
       d="m 67.028579,57.719231 h -24.3832 l -0.727858,2.939965 h 24.625818 z"
       id="path4856-6"
       inkscape:connector-curvature="0"
       inkscape:export-filename="/usr/local/google/home/derat/tast-export-1024.png"
       inkscape:export-xdpi="104.78289"
       inkscape:export-ydpi="104.78289" />
  </g>
</svg>
